<?xml version="1.0" encoding="UTF-8" standalone="no"?>
<!-- Created with Inkscape (http://www.inkscape.org/) -->

<svg
   xmlns:dc="http://purl.org/dc/elements/1.1/"
   xmlns:cc="http://creativecommons.org/ns#"
   xmlns:rdf="http://www.w3.org/1999/02/22-rdf-syntax-ns#"
   xmlns:svg="http://www.w3.org/2000/svg"
   xmlns="http://www.w3.org/2000/svg"
   xmlns:sodipodi="http://sodipodi.sourceforge.net/DTD/sodipodi-0.dtd"
   xmlns:inkscape="http://www.inkscape.org/namespaces/inkscape"
   width="25"
   height="25"
   id="svg2"
   version="1.1"
   inkscape:version="0.48.3.1 r9886">
  <defs
     id="defs4" />
  <sodipodi:namedview
     id="base"
     pagecolor="#ffffff"
     bordercolor="#666666"
     borderopacity="1.0"
     inkscape:pageopacity="0.0"
     inkscape:pageshadow="2"
     inkscape:zoom="15.839192"
     inkscape:cx="7.9606018"
     inkscape:cy="9.6148315"
     inkscape:document-units="px"
     inkscape:current-layer="layer1"
     showgrid="false"
     units="pt"
     fit-margin-top="0"
     inkscape:window-width="1301"
     inkscape:window-height="744"
     inkscape:window-x="65"
     inkscape:window-y="24"
     inkscape:window-maximized="1" />
  <metadata
     id="metadata7">
    <rdf:RDF>
      <cc:Work
         rdf:about="">
        <dc:format>image/svg+xml</dc:format>
        <dc:type
           rdf:resource="http://purl.org/dc/dcmitype/StillImage" />
        <dc:title></dc:title>
      </cc:Work>
    </rdf:RDF>
  </metadata>
  <g
     inkscape:label="Layer 1"
     inkscape:groupmode="layer"
     id="layer1"
     transform="translate(0,-1027.3622)">
    <path
       sodipodi:type="star"
       style="fill:#002a6c;fill-opacity:1"
       id="path3757"
       sodipodi:sides="5"
       sodipodi:cx="11.111678"
       sodipodi:cy="13.572649"
       sodipodi:r1="12.634638"
       sodipodi:r2="5.5592413"
       sodipodi:arg1="-1.5707963"
       sodipodi:arg2="-0.9424778"
       inkscape:flatsided="false"
       inkscape:rounded="0.05"
       inkscape:randomized="0"
       d="m 11.111678,0.93801117 c 0.438436,0 2.912939,7.87941143 3.26764,8.13711713 0.354702,0.2577057 8.613131,0.1762266 8.748615,0.5932032 0.135484,0.4169765 -6.593618,5.2052405 -6.729102,5.6222175 -0.135484,0.416977 2.494002,8.246031 2.139301,8.503737 -0.354702,0.257706 -6.988019,-4.662396 -7.426454,-4.662396 -0.438435,0 -7.0717525,4.920101 -7.4264539,4.662396 C 3.3305226,23.53658 5.9600094,15.707526 5.8245255,15.290549 5.6890416,14.873572 -1.0400603,10.085307 -0.90457641,9.6683309 -0.76909251,9.2513543 7.4893366,9.332834 7.8440381,9.0751283 8.1987395,8.8174226 10.673243,0.93801117 11.111678,0.93801117 z"
       transform="matrix(1.0052533,0,0,1.0308533,1.3305877,1027.196)"
       inkscape:transform-center-y="-1.2386227" />
  </g>
</svg>
